HIERARCHY
ROOT hip
{
  OFFSET 0 0 0
  CHANNELS 6 Xposition Yposition Zposition Zrotation Yrotation Xrotation
  JOINT abdomen
  {
    OFFSET 0 20.6881 -0.73152
    CHANNELS 3 Zrotation Xrotation Yrotation
    JOINT chest
    {
      OFFSET 0 11.7043 -0.48768
      CHANNELS 3 Zrotation Xrotation Yrotation
      JOINT neck
      {
        OFFSET 0 22.1894 -2.19456
        CHANNELS 3 Zrotation Xrotation Yrotation
        JOINT head
        {
          OFFSET -0.24384 7.07133 1.2192
          CHANNELS 3 Zrotation Xrotation Yrotation
          JOINT leftEye
          {
            OFFSET 4.14528 8.04674 8.04672
            CHANNELS 3 Zrotation Xrotation Yrotation
            End Site
            {
              OFFSET 1 0 0
            }
          }
          JOINT rightEye
          {
            OFFSET -3.6576 8.04674 8.04672
            CHANNELS 3 Zrotation Xrotation Yrotation
            End Site
            {
              OFFSET 1 0 0
            }
          }
        }
      }
      JOINT rCollar
      {
        OFFSET -2.68224 19.2634 -4.8768
        CHANNELS 3 Zrotation Xrotation Yrotation
        JOINT rShldr
        {
          OFFSET -8.77824 -1.95073 1.46304
          CHANNELS 3 Zrotation Xrotation Yrotation
          JOINT rForeArm
          {
            OFFSET -28.1742 -1.7115 0.48768
            CHANNELS 3 Zrotation Xrotation Yrotation
            JOINT rHand
            {
              OFFSET -22.5879 0.773209 7.07136
              CHANNELS 3 Zrotation Xrotation Yrotation
              JOINT rThumb1
              {
                OFFSET -1.2192 -0.487915 3.41376
                CHANNELS 3 Zrotation Xrotation Yrotation
                JOINT rThumb2
                {
                  OFFSET -3.37035 -0.52449 3.41376
                  CHANNELS 3 Zrotation Xrotation Yrotation
                  End Site
                  {
                    OFFSET -1.78271 -1.18214 1.43049
                  }
                }
              }
              JOINT rIndex1
              {
                OFFSET -7.75947 0.938293 5.60832
                CHANNELS 3 Zrotation Xrotation Yrotation
                JOINT rIndex2
                {
                  OFFSET -2.54057 -0.884171 1.56538
                  CHANNELS 3 Zrotation Xrotation Yrotation
                  End Site
                  {
                    OFFSET -1.62519 -0.234802 1.16502
                  }
                }
              }
              JOINT rMid1
              {
                OFFSET -8.24714 1.18213 3.41376
                CHANNELS 3 Zrotation Xrotation Yrotation
                JOINT rMid2
                {
                  OFFSET -3.10165 -0.590103 1.0647
                  CHANNELS 3 Zrotation Xrotation Yrotation
                  End Site
                  {
                    OFFSET -2.48547 -0.328903 0.83742
                  }
                }
              }
              JOINT rRing1
              {
                OFFSET -8.82822 0.546677 1.51678
                CHANNELS 3 Zrotation Xrotation Yrotation
                JOINT rRing2
                {
                  OFFSET -2.60934 -0.819778 -0.0198488
                  CHANNELS 3 Zrotation Xrotation Yrotation
                  End Site
                  {
                    OFFSET -2.33842 -0.294052 0.168128
                  }
                }
              }
              JOINT rPinky1
              {
                OFFSET -8.27202 -0.0477905 -0.4584
                CHANNELS 3 Zrotation Xrotation Yrotation
                JOINT rPinky2
                {
                  OFFSET -1.82734 -0.647385 -0.700984
                  CHANNELS 3 Zrotation Xrotation Yrotation
                  End Site
                  {
                    OFFSET -1.69225 -0.51767 -0.607171
                  }
                }
              }
            }
          }
        }
      }
      JOINT lCollar
      {
        OFFSET 2.68224 19.2634 -4.8768
        CHANNELS 3 Zrotation Xrotation Yrotation
        JOINT lShldr
        {
          OFFSET 8.77824 -1.95073 1.46304
          CHANNELS 3 Zrotation Xrotation Yrotation
          JOINT lForeArm
          {
            OFFSET 28.1742 -1.7115 0.48768
            CHANNELS 3 Zrotation Xrotation Yrotation
            JOINT lHand
            {
              OFFSET 22.5879 0.773209 7.07136
              CHANNELS 3 Zrotation Xrotation Yrotation
              JOINT lThumb1
              {
                OFFSET 1.2192 -0.487915 3.41376
                CHANNELS 3 Zrotation Xrotation Yrotation
                JOINT lThumb2
                {
                  OFFSET 3.37035 -0.52449 3.41376
                  CHANNELS 3 Zrotation Xrotation Yrotation
                  End Site
                  {
                    OFFSET 1.78271 -1.18214 1.43049
                  }
                }
              }
              JOINT lIndex1
              {
                OFFSET 7.75947 0.938293 5.60832
                CHANNELS 3 Zrotation Xrotation Yrotation
                JOINT lIndex2
                {
                  OFFSET 2.54057 -0.884171 1.56538
                  CHANNELS 3 Zrotation Xrotation Yrotation
                  End Site
                  {
                    OFFSET 1.62519 -0.234802 1.16502
                  }
                }
              }
              JOINT lMid1
              {
                OFFSET 8.24714 1.18213 3.41376
                CHANNELS 3 Zrotation Xrotation Yrotation
                JOINT lMid2
                {
                  OFFSET 3.10165 -0.590103 1.0647
                  CHANNELS 3 Zrotation Xrotation Yrotation
                  End Site
                  {
                    OFFSET 2.48547 -0.328903 0.83742
                  }
                }
              }
              JOINT lRing1
              {
                OFFSET 8.82822 0.546677 1.51678
                CHANNELS 3 Zrotation Xrotation Yrotation
                JOINT lRing2
                {
                  OFFSET 2.60934 -0.819778 -0.0198488
                  CHANNELS 3 Zrotation Xrotation Yrotation
                  End Site
                  {
                    OFFSET 2.33842 -0.294052 0.168128
                  }
                }
              }
              JOINT lPinky1
              {
                OFFSET 8.27202 -0.0477905 -0.4584
                CHANNELS 3 Zrotation Xrotation Yrotation
                JOINT lPinky2
                {
                  OFFSET 1.82734 -0.647385 -0.700984
                  CHANNELS 3 Zrotation Xrotation Yrotation
                  End Site
                  {
                    OFFSET 1.69225 -0.51767 -0.607171
                  }
                }
              }
            }
          }
        }
      }
    }
  }
  JOINT rButtock
  {
    OFFSET -8.77824 4.35084 1.2192
    CHANNELS 3 Zrotation Xrotation Yrotation
    JOINT rThigh
    {
      OFFSET 0 -1.70687 -2.19456
      CHANNELS 3 Zrotation Xrotation Yrotation
      JOINT rShin
      {
        OFFSET 0 -36.8199 0.73152
        CHANNELS 3 Zrotation Xrotation Yrotation
        JOINT rFoot
        {
          OFFSET 0.73152 -45.1104 -5.12064
          CHANNELS 3 Zrotation Xrotation Yrotation
          End Site
          {
            OFFSET -1.1221 -3.69964 12.103
          }
        }
      }
    }
  }
  JOINT lButtock
  {
    OFFSET 8.77824 4.35084 1.2192
    CHANNELS 3 Zrotation Xrotation Yrotation
    JOINT lThigh
    {
      OFFSET 0 -1.70687 -2.19456
      CHANNELS 3 Zrotation Xrotation Yrotation
      JOINT lShin
      {
        OFFSET 0 -36.8199 0.73152
        CHANNELS 3 Zrotation Xrotation Yrotation
        JOINT lFoot
        {
          OFFSET -0.73152 -45.1104 -5.12064
          CHANNELS 3 Zrotation Xrotation Yrotation
          End Site
          {
            OFFSET 1.1221 -3.69964 12.103
          }
        }
      }
    }
  }
}
MOTION
Frames:	4
Frame Time:	0.03333
-7.548057287931442 45.87053060531616 39.585141092538834 1.128309965133667 76.97713470458984 3.055176019668579 0.42657342553138733 17.277790069580078 -11.965697288513184 10.11018180847168 -12.267684936523438 -2.2311229705810547 -8.711641311645508 21.944549560546875 -16.796085357666016 19.626476287841797 -28.94053840637207 -28.29292869567871 -0.08208149671554565 -0.21928763389587402 0.22152623534202576 0.04159410670399666 -0.41380518674850464 0.12456375360488892 -0.6668781042098999 0.04057030752301216 -0.06999590992927551 47.308597564697266 -7.201766490936279 12.856415748596191 -27.165939331054688 -43.87895584106445 91.1281967163086 -0.1181192472577095 -15.395554542541504 -2.715013027191162 0.08321914821863174 -0.3297453224658966 -0.08411557972431183 -0.04034571349620819 -0.1409584879875183 -0.2325276881456375 0.2460673451423645 -0.0644715428352356 0.06957164406776428 7.753986358642578 5.372145175933838 0.6553677320480347 0.18724921345710754 0.26822641491889954 0.11735043674707413 2.9985270500183105 0.8591256141662598 0.1539241522550583 0.07982081919908524 0.09001341462135315 0.11426930129528046 10.328600883483887 0.43418410420417786 -0.1218574121594429 -0.4493458569049835 0.08653657883405685 0.2306002676486969 1.8709865808486938 -0.8916254639625549 -0.06994611769914627 0.3461626470088959 -0.07348157465457916 -0.1256091147661209 9.219188690185547 57.74358367919922 -96.08000946044922 26.790382385253906 -44.647396087646484 -92.66580963134766 0.44893497228622437 -20.22550392150879 2.7857019901275635 0.2980763614177704 -0.10574987530708313 -0.3823713958263397 -0.10801484435796738 0.19019922614097595 0.12141119688749313 -0.0320139043033123 -0.23117771744728088 -0.08692914247512817 -7.502701282501221 5.321811199188232 -0.6592151522636414 -0.05274864286184311 -0.34811004996299744 -0.16515883803367615 -2.8933169841766357 0.9310426712036133 -0.17596739530563354 -0.16037996113300323 -0.23940157890319824 -0.15628275275230408 -10.632232666015625 0.7654953598976135 -0.14891232550144196 0.04949769377708435 -0.27779021859169006 -0.09821132570505142 -2.0432779788970947 -0.6987557411193848 0.11879563331604004 0.001907952013425529 -0.382131963968277 0.14884373545646667 -87.67306518554688 -56.78081512451172 -66.78429412841797 -34.90935134887695 87.57440185546875 34.99223709106445 13.029387474060059 -14.262975692749023 28.271818161010742 -0.04130901023745537 0.1239064410328865 -0.053072523325681686 78.68095397949219 -36.51628112792969 64.76778411865234 174.0744171142578 80.51609802246094 -176.83802795410156 6.124453544616699 -22.963672637939453 12.50778579711914
-7.906236406415701 45.567718148231506 39.90545365959406 1.1828010082244873 76.92032623291016 3.027768850326538 0.4625900685787201 17.26753044128418 -11.94021987915039 10.069347381591797 -12.32038402557373 -2.2211990356445312 -8.67727279663086 21.905757904052734 -16.709369659423828 19.568910598754883 -28.822904586791992 -28.242321014404297 -0.08320558071136475 -0.215304896235466 0.20898094773292542 0.06337252259254456 -0.41227060556411743 0.11921320855617523 -0.6709526181221008 0.06798633188009262 -0.04884234070777893 47.38624572753906 -7.376559734344482 12.96907901763916 -27.20783042907715 -43.83735656738281 90.96641540527344 -0.10895755141973495 -15.390460968017578 -2.6488423347473145 0.08874015510082245 -0.3767251968383789 -0.09475243836641312 -0.04479004442691803 -0.14774271845817566 -0.23858386278152466 0.2650999426841736 -0.04969372972846031 0.0831536203622818 7.769013404846191 5.395503044128418 0.6629050374031067 0.17168700695037842 0.2463754415512085 0.10258296877145767 3.0186350345611572 0.8590189814567566 0.117132268846035 0.1061449721455574 0.09995383769273758 0.12895090878009796 10.321904182434082 0.45194685459136963 -0.128661647439003 -0.46107348799705505 0.09211282432079315 0.2372734546661377 1.8939902782440186 -0.8843470811843872 -0.06756559014320374 0.3750368058681488 -0.08485109359025955 -0.09654836356639862 9.398015975952148 57.7039680480957 -96.20157623291016 26.775867462158203 -44.679115295410156 -92.73819732666016 0.45689719915390015 -20.503938674926758 2.794529914855957 0.292715460062027 -0.10541889816522598 -0.37607234716415405 -0.07874922454357147 0.16760697960853577 0.13239920139312744 -0.028360800817608833 -0.22908349335193634 -0.10899316519498825 -7.4925618171691895 5.318508148193359 -0.6541709303855896 -0.054117318242788315 -0.3647271692752838 -0.13675588369369507 -2.885136604309082 0.9325827956199646 -0.1974257230758667 -0.13154777884483337 -0.2091514617204666 -0.1697063148021698 -10.649744033813477 0.752232551574707 -0.15317878127098083 0.027977077290415764 -0.269235223531723 -0.08688688278198242 -2.0497617721557617 -0.6718317866325378 0.15208818018436432 0.008118048310279846 -0.36737126111984253 0.14869140088558197 -88.42948913574219 -56.562259674072266 -67.5894775390625 -42.35974884033203 87.95157623291016 42.447166442871094 13.22978687286377 -14.469606399536133 28.510215759277344 -0.04498256742954254 0.10089864581823349 -0.09037785977125168 79.20855712890625 -36.44071578979492 65.037353515625 174.3302764892578 80.21563720703125 -177.1399383544922 6.034590244293213 -22.999670028686523 12.382257461547852
-8.24661459773779 45.37757337093353 40.20819393917918 1.160355806350708 76.74468994140625 3.2955217361450195 0.36219093203544617 17.275177001953125 -11.790358543395996 9.984082221984863 -12.339192390441895 -2.170403003692627 -8.624924659729004 21.825664520263672 -16.588499069213867 19.492820739746094 -28.703203201293945 -28.142051696777344 -0.0965551808476448 -0.2055804282426834 0.20070062577724457 0.08066464960575104 -0.4008156657218933 0.12398030608892441 -0.661496639251709 0.1074710488319397 -0.01554332859814167 47.32483673095703 -7.214108467102051 13.153446197509766 -27.269384384155273 -43.71824645996094 90.70928192138672 -0.09259571135044098 -15.256691932678223 -2.548859119415283 0.07549189776182175 -0.4252499043941498 -0.11223214119672775 -0.02819361537694931 -0.1459820717573166 -0.2460465282201767 0.2815159857273102 -0.04665970429778099 0.10564322769641876 7.76822566986084 5.412900924682617 0.6688769459724426 0.16229578852653503 0.2066085934638977 0.09187798202037811 3.036825180053711 0.8546977043151855 0.09790676832199097 0.1307561844587326 0.11577194184064865 0.13822634518146515 10.317920684814453 0.47090837359428406 -0.1290685087442398 -0.47691959142684937 0.11283722519874573 0.2455124706029892 1.9100010395050049 -0.8621856570243835 -0.046885620802640915 0.3764052987098694 -0.08962725847959518 -0.07557554543018341 8.73676872253418 57.89166259765625 -95.35800170898438 26.7984676361084 -44.597984313964844 -92.58606719970703 0.46167290210723877 -20.636266708374023 2.8004209995269775 0.30172374844551086 -0.10356177389621735 -0.35482779145240784 -0.04016758129000664 0.13726817071437836 0.13622163236141205 -0.02006502076983452 -0.24652934074401855 -0.11504535377025604 -7.46858024597168 5.310634136199951 -0.6501359343528748 -0.05906236916780472 -0.3764518201351166 -0.1097220927476883 -2.880625009536743 0.9425827860832214 -0.2225150316953659 -0.11530974507331848 -0.18608683347702026 -0.18785226345062256 -10.640430450439453 0.7411002516746521 -0.15125277638435364 0.004821863956749439 -0.2773066759109497 -0.07880484312772751 -2.0501554012298584 -0.6455982327461243 0.17906033992767334 0.005942699033766985 -0.3447534143924713 0.1625031679868698 -88.98745727539062 -56.44693374633789 -68.2056655883789 -51.63451385498047 88.25459289550781 51.72378921508789 13.405056953430176 -14.764264106750488 28.58956527709961 -0.03787143528461456 0.08036921918392181 -0.11570534855127335 79.49121856689453 -36.490379333496094 65.07750701904297 174.496826171875 80.0816421508789 -177.36814880371094 5.939680576324463 -22.847410202026367 12.32955551147461
-8.562359865754843 45.1004832983017 40.51524559035897 0.8620936274528503 76.76130676269531 3.6671664714813232 0.3029533922672272 17.320741653442383 -11.655060768127441 9.919373512268066 -12.387201309204102 -2.112844467163086 -8.575538635253906 21.764999389648438 -16.491472244262695 19.473987579345703 -28.624902725219727 -28.08605194091797 -0.09939077496528625 -0.19160668551921844 0.18833155930042267 0.0939524918794632 -0.38602718710899353 0.1396435797214508 -0.6456103920936584 0.12993845343589783 0.020602695643901825 47.210628509521484 -7.073503494262695 13.290373802185059 -27.304946899414062 -43.66851806640625 90.57744598388672 -0.07065003365278244 -15.192718505859375 -2.463794231414795 0.06902831792831421 -0.4540902078151703 -0.13168036937713623 -0.013411278836429119 -0.1452726274728775 -0.2511799931526184 0.29006609320640564 -0.053200509399175644 0.10595499724149704 7.762445449829102 5.429154396057129 0.6698442101478577 0.14360779523849487 0.1753089874982834 0.08467435836791992 3.0541765689849854 0.8551158905029297 0.08828534185886383 0.14949265122413635 0.13646253943443298 0.15379071235656738 10.309356689453125 0.48635122179985046 -0.1273672878742218 -0.48253634572029114 0.13086102902889252 0.2437337338924408 1.9272167682647705 -0.8345032334327698 -0.029127413406968117 0.3628389537334442 -0.08440066128969193 -0.06088288873434067 8.096519470214844 58.027488708496094 -94.47492218017578 26.7822265625 -44.57087707519531 -92.54020690917969 0.47296223044395447 -20.71417808532715 2.791438579559326 0.2975526750087738 -0.09667829424142838 -0.332729309797287 -0.013481244444847107 0.11519630998373032 0.1296643167734146 -0.02168520726263523 -0.25618717074394226 -0.11541800945997238 -7.448081970214844 5.312514781951904 -0.6435444355010986 -0.08076561987400055 -0.39285609126091003 -0.09368951618671417 -2.883011817932129 0.9422410726547241 -0.2317410260438919 -0.10484527796506882 -0.15783224999904633 -0.21276354789733887 -10.627979278564453 0.727104902267456 -0.1528114229440689 -0.01862587407231331 -0.27555811405181885 -0.0671808049082756 -2.0678341388702393 -0.6229819059371948 0.19975247979164124 0.01604989543557167 -0.3222731649875641 0.16792413592338562 -89.63067626953125 -56.38966369628906 -68.85352325439453 -67.43778228759766 88.53673553466797 67.54936218261719 13.572173118591309 -15.09547233581543 28.65532875061035 -0.022660043090581894 0.05736619606614113 -0.12679509818553925 79.85323333740234 -36.539222717285156 65.20637512207031 174.57196044921875 79.82644653320312 -177.47230529785156 5.831448554992676 -22.682863235473633 12.27544116973877
